<svg height="457pt" viewBox="0 -61 457.14286 457" width="457pt" xmlns="http://www.w3.org/2000/svg"><path d="m448 .0703125h-438.855469c-5.050781 0-9.144531 4.0937495-9.144531 9.1445315v316.316406c0 5.050781 4.09375 9.144531 9.144531 9.144531h438.855469c5.050781 0 9.144531-4.09375 9.144531-9.144531v-316.316406c0-5.050782-4.09375-9.1445315-9.144531-9.1445315zm-22.113281 18.2851565-197.4375 197.210937-197.210938-197.210937zm-407.601563 298.03125v-285.125l203.695313 203.695312c1.789062 1.785157 4.125 2.675781 6.464843 2.675781 2.339844 0 4.679688-.890624 6.460938-2.671874l203.949219-203.714844v285.140625zm0 0"/></svg>